<?xml version="1.0" encoding="utf-8"?>
<!-- Generator: Adobe Illustrator 16.0.0, SVG Export Plug-In . SVG Version: 6.00 Build 0)  -->
<!DOCTYPE svg PUBLIC "-//W3C//DTD SVG 1.1//EN" "http://www.w3.org/Graphics/SVG/1.1/DTD/svg11.dtd">
<svg version="1.1" id="图层_1" xmlns="http://www.w3.org/2000/svg" xmlns:xlink="http://www.w3.org/1999/xlink" x="0px" y="0px"
	 width="128px" height="35px" viewBox="0 0 128 35" enable-background="new 0 0 128 35" xml:space="preserve">
<g>
	<path fill="#444343" d="M54.937,18.346c0-0.62-0.098-0.74-0.438-0.921l-0.229-0.122c-0.074-0.025-0.098-0.037-0.098-0.085v-0.072
		c0-0.049,0.024-0.073,0.098-0.109l1.199-0.618c0.074-0.037,0.122-0.049,0.169-0.049c0.074,0,0.085,0.072,0.085,0.146l0.061,0.836
		h0.05c0.363-0.558,0.933-1.055,1.454-1.055c0.413,0,0.619,0.254,0.619,0.533c0,0.352-0.292,0.595-0.509,0.595
		c-0.134,0-0.255-0.049-0.352-0.098c-0.097-0.061-0.243-0.097-0.4-0.097c-0.195,0-0.51,0.122-0.716,0.51
		c-0.072,0.133-0.122,0.351-0.122,0.388v2.544c0,0.377,0.086,0.499,0.34,0.499h0.57c0.073,0,0.084,0.035,0.084,0.109v0.218
		c0,0.072-0.012,0.107-0.061,0.107c-0.072,0-0.63-0.035-1.284-0.035c-0.751,0-1.262,0.035-1.334,0.035
		c-0.049,0-0.073-0.022-0.073-0.121V21.28c0-0.088,0.024-0.109,0.133-0.109h0.472c0.182,0,0.267-0.074,0.267-0.23
		c0.013-0.4,0.013-0.825,0.013-1.456V18.346z"/>
	<path fill="#444343" d="M60.076,20.879c-0.557-0.668-0.667-1.116-0.667-1.976c0-0.618,0.327-1.395,1.042-1.952
		c0.632-0.485,1.225-0.582,1.625-0.582c0.667,0,1.333,0.34,1.697,0.704c0.545,0.558,0.824,1.188,0.824,1.976
		c0,1.322-1.188,2.666-2.678,2.666C61.338,21.715,60.586,21.484,60.076,20.879 M63.58,18.927c0-1.344-0.982-2.194-1.601-2.194
		c-0.326,0-0.641,0.074-0.932,0.388c-0.474,0.485-0.644,0.983-0.644,1.903c0,0.68,0.072,1.141,0.461,1.698
		c0.278,0.399,0.63,0.63,1.201,0.63C62.986,21.352,63.58,20.224,63.58,18.927"/>
	<path fill="#444343" d="M67.023,21.362c-0.06-0.035-0.06-0.107-0.073-0.17l-0.206-1.15c-0.011-0.062,0.023-0.083,0.074-0.096
		l0.156-0.037c0.049-0.012,0.085,0.012,0.108,0.071l0.304,0.596c0.242,0.447,0.412,0.751,1.055,0.751
		c0.425,0,0.957-0.253,0.957-0.824c0-0.544-0.266-0.861-1.175-1.114c-0.715-0.207-1.431-0.583-1.431-1.541
		c0-0.837,0.788-1.479,1.696-1.479c0.582,0,0.898,0.146,1.115,0.255c0.183,0.085,0.208,0.145,0.22,0.217l0.181,0.849
		c0,0.049-0.023,0.084-0.085,0.109l-0.145,0.048c-0.049,0.012-0.072,0-0.109-0.061l-0.413-0.558
		c-0.145-0.23-0.375-0.473-0.848-0.473c-0.461,0-0.933,0.279-0.933,0.799c0,0.704,0.569,0.837,1.163,1.006
		c0.885,0.256,1.442,0.619,1.454,1.553c-0.012,0.981-0.812,1.6-1.842,1.6C67.654,21.715,67.168,21.473,67.023,21.362"/>
	<path fill="#444343" d="M73.158,18.346c-0.024,0.109-0.036,0.303-0.036,0.581c0,1.188,0.752,2.084,1.721,2.084
		c0.74,0,1.261-0.422,1.467-0.822c0.023-0.05,0.073-0.073,0.109-0.061l0.157,0.083c0.036,0.013,0.061,0.05,0,0.183
		c-0.217,0.485-0.848,1.321-1.928,1.321c-0.69,0-1.454-0.205-1.902-0.86c-0.425-0.617-0.534-1.067-0.534-1.915
		c0-0.473,0.122-1.285,0.764-1.928c0.521-0.533,1.128-0.642,1.735-0.642c1.393,0,1.781,1.309,1.781,1.782
		c0,0.169-0.146,0.194-0.339,0.194H73.158z M75.086,17.982c0.229,0,0.326-0.06,0.326-0.17c0-0.278-0.144-1.079-0.933-1.079
		c-0.534,0-1.043,0.353-1.272,1.25H75.086z"/>
	<path fill="#444343" d="M79.232,20.879c-0.558-0.668-0.667-1.116-0.667-1.976c0-0.618,0.327-1.395,1.043-1.952
		c0.63-0.485,1.224-0.582,1.625-0.582c0.667,0,1.334,0.34,1.696,0.704c0.545,0.558,0.825,1.188,0.825,1.976
		c0,1.322-1.188,2.666-2.681,2.666C80.493,21.715,79.742,21.484,79.232,20.879 M82.736,18.927c0-1.344-0.982-2.194-1.601-2.194
		c-0.326,0-0.643,0.074-0.935,0.388c-0.473,0.485-0.642,0.983-0.642,1.903c0,0.68,0.072,1.141,0.461,1.698
		c0.278,0.399,0.63,0.63,1.2,0.63C82.143,21.352,82.736,20.224,82.736,18.927"/>
	<path fill="#444343" d="M90.763,20.915c0,0.195,0.107,0.256,0.266,0.256h0.388c0.109,0,0.133,0.035,0.133,0.109v0.192
		c0,0.085-0.023,0.133-0.096,0.133c-0.085,0-0.462-0.035-1.151-0.035c-0.619,0-1.008,0.035-1.092,0.035
		c-0.072,0-0.096-0.035-0.096-0.133V21.28c0-0.088,0.035-0.109,0.156-0.109h0.353c0.132,0,0.229-0.061,0.242-0.28
		c0.012-0.314,0.023-0.702,0.023-1.019v-1.599c0-0.486,0-0.838-0.352-1.092c-0.29-0.218-0.581-0.218-0.884-0.218
		c-0.195,0-0.619,0.084-0.982,0.472c-0.243,0.268-0.278,0.595-0.278,0.826v2.509c0,0.327,0.035,0.401,0.289,0.401h0.305
		c0.096,0,0.12,0.035,0.12,0.122v0.205c0,0.072-0.024,0.107-0.084,0.107c-0.085,0-0.411-0.035-1.055-0.035
		c-0.617,0-1.006,0.035-1.079,0.035c-0.062,0-0.085-0.035-0.085-0.107V21.28c0-0.074,0.023-0.109,0.122-0.109h0.352
		c0.157,0,0.242-0.038,0.242-0.243v-2.837c0-0.365-0.195-0.571-0.497-0.714l-0.097-0.05c-0.085-0.035-0.099-0.072-0.099-0.109
		v-0.061c0-0.061,0.05-0.097,0.11-0.121l1.041-0.583c0.098-0.048,0.172-0.084,0.219-0.084c0.062,0,0.086,0.049,0.098,0.146
		l0.085,0.74h0.023c0.351-0.436,1.055-0.886,1.661-0.886c0.364,0,0.74,0.072,1.031,0.268c0.363,0.242,0.667,0.848,0.667,1.151
		V20.915z"/>
	<path fill="#444343" d="M95.031,17.958c0,0.63,0,2.46,0.011,2.836c0.013,0.206,0.061,0.377,0.314,0.377h0.546
		c0.11,0,0.134,0.035,0.134,0.109v0.204c0,0.073-0.023,0.121-0.072,0.121c-0.086,0-0.618-0.035-1.37-0.035
		c-0.775,0-1.262,0.035-1.371,0.035c-0.06,0-0.084-0.048-0.084-0.121V21.28c0-0.088,0.024-0.109,0.158-0.109h0.581
		c0.134,0,0.255-0.087,0.267-0.304c0.014-0.378,0.014-2.461,0.014-3.164v-0.764c0-0.861-0.014-1.963-0.037-2.279
		c-0.025-0.412-0.218-0.607-0.606-0.728l-0.242-0.084c-0.061-0.024-0.073-0.036-0.073-0.061V13.69c0-0.037,0.037-0.061,0.108-0.085
		c0.427-0.194,0.972-0.413,1.419-0.704c0.109-0.072,0.183-0.096,0.254-0.096c0.086,0,0.11,0.061,0.098,0.218
		c-0.012,0.667-0.047,3.188-0.047,3.855V17.958z"/>
	<path fill="#444343" d="M97.443,24.248c0-0.254,0.266-0.471,0.557-0.471c0.23,0,0.449,0.108,0.559,0.132
		c0.085,0.012,0.182,0,0.255-0.072c0.182-0.219,0.799-1.602,0.97-2.073c-0.061-0.302-1.347-4.085-1.443-4.339
		c-0.146-0.304-0.256-0.509-0.569-0.509h-0.316c-0.084,0-0.097-0.037-0.097-0.109v-0.243c0-0.048,0.013-0.084,0.097-0.084
		c0.109,0,0.401,0.037,1.117,0.037c0.617,0,0.992-0.037,1.125-0.037c0.099,0,0.11,0.037,0.11,0.084v0.256
		c0,0.06-0.012,0.097-0.073,0.097h-0.229c-0.133,0-0.182,0.084-0.157,0.266c0.035,0.267,0.86,2.934,0.993,3.2h0.05
		c0.12-0.192,1.175-2.703,1.248-3.004c0.073-0.304-0.024-0.461-0.206-0.461h-0.195c-0.07,0-0.084-0.037-0.084-0.097v-0.244
		c0-0.06,0.014-0.097,0.073-0.097c0.157,0,0.412,0.037,0.993,0.037c0.327,0,0.606-0.037,0.74-0.037c0.072,0,0.072,0.049,0.072,0.097
		v0.231c0,0.072,0,0.109-0.061,0.109h-0.193c-0.134,0-0.304,0.06-0.424,0.217c-0.268,0.328-1.066,2.169-1.905,4.073
		c-0.593,1.347-1.066,2.472-1.283,2.873c-0.17,0.316-0.389,0.787-1.031,0.787C97.674,24.866,97.443,24.613,97.443,24.248"/>
	<path fill="#444343" d="M37.049,17.178c-0.46,0-0.812,0.424-1.357,1.407c-0.413,0.726-0.606,1.465-0.606,1.962
		c0,0.243,0.146,0.533,0.424,0.533c0.363,0,0.751-0.254,1.248-1.201c0.376-0.7,0.74-1.731,0.74-2.18
		C37.498,17.408,37.376,17.178,37.049,17.178"/>
	<path fill="#444343" d="M49.396,17.505c0-0.194-0.048-0.412-0.327-0.412c-0.461,0-0.982,1.102-1.165,1.89
		c0.206,0.013,0.752-0.145,1.104-0.484C49.202,18.316,49.396,17.904,49.396,17.505"/>
	<path fill="#444343" d="M52.778,7.025c-4.93-7.686-17.435-3.264-14.189,6.437c-7.886-8.107-19.506,4.119-10.13,11.465
		c6.587,3.968,14.711,2.486,21.282,6.664C48.886,24.205,57.065,13.707,52.778,7.025 M34.035,13.662l-2.424,6.8
		c-0.122,0.34-0.109,0.521,0.122,0.521c0.291,0,0.715-0.437,0.873-0.593c0.037-0.037,0.073-0.037,0.109,0l0.133,0.145
		c0.024,0.036,0.037,0.074,0,0.134c-0.048,0.083-0.981,1.115-2.266,1.115c-0.255,0-0.522-0.302-0.522-0.509
		c0-0.205,0.219-0.788,0.34-1.127l1.903-5.504c0.158-0.461,0.121-0.764-0.23-0.764h-0.352c-0.084,0-0.109-0.049-0.097-0.11
		l0.073-0.242c0.024-0.073,0.049-0.085,0.121-0.085h2.134C34.059,13.443,34.096,13.516,34.035,13.662 M37.462,21.08
		c-0.473,0.511-1.006,0.704-1.782,0.704c-0.704,0-1.6-0.484-1.6-1.854c0-0.982,0.278-2,0.957-2.739
		c0.498-0.522,1.079-0.704,1.734-0.704s1.709,0.303,1.709,1.782C38.48,18.983,38.225,20.27,37.462,21.08 M44.651,20.001
		c-0.594,0.97-1.528,1.783-2.667,1.783c-0.412,0-0.643-0.169-0.885-0.389c-0.182-0.17-0.291-0.534-0.291-1.005
		c0-0.438,0.108-0.91,0.303-1.346c0.34-0.776,0.994-1.455,1.31-1.819l-0.073-0.084c-0.267,0.267-0.727,0.388-1.176,0.388h-0.594
		c-0.498,0-0.655,0.145-0.667,0.352c0.012,0.157,0.279,0.291,0.388,0.352c0.084,0.048,0.266,0.229,0.266,0.545
		s-0.144,0.498-0.533,0.498c-0.327,0-0.655-0.315-0.655-0.946c0-0.498,0.303-1.006,0.473-1.2c0.242-0.267,0.509-0.583,1.381-0.583
		c1.479,0,1.625-0.06,1.758-0.06c0.158,0,0.278,0.072,0.169,0.243c-0.667,1.054-1.006,1.503-1.006,2.945
		c0,0.8,0.328,1.187,0.63,1.187c0.521,0,0.824-0.205,1.018-0.483c0.497-0.716,0.607-1.225,0.607-2.085
		c0.036-0.424-0.049-0.619-0.183-0.739c-0.061-0.062-0.169-0.291-0.169-0.449c0-0.17,0.23-0.618,0.812-0.618
		c0.46,0,0.654,0.508,0.654,1.03C45.523,18.316,45.378,18.826,44.651,20.001 M46.256,20.427c0-0.899,0.388-2.183,1.467-3.092
		c0.594-0.51,1.31-0.848,2.025-0.848c0.667,0,0.945,0.375,0.945,0.836c0,0.678-0.4,1.176-1.103,1.575
		c-0.667,0.377-1.322,0.497-1.782,0.533c-0.049,0.108-0.097,0.425-0.097,0.764c0,0.425,0.242,0.788,0.654,0.788
		c0.594,0,1.03-0.327,1.31-0.63c0.024-0.036,0.06-0.061,0.097-0.036l0.193,0.133c0.049,0.037,0.049,0.072,0.025,0.121
		c-0.219,0.437-1.128,1.213-2.316,1.213C46.85,21.784,46.256,21.287,46.256,20.427"/>
</g>
</svg>
